<?xml version="1.0" encoding="iso-8859-1"?>
<!-- Generator: Adobe Illustrator 19.0.0, SVG Export Plug-In . SVG Version: 6.00 Build 0)  -->
<svg version="1.1" id="Layer_1" xmlns="http://www.w3.org/2000/svg" xmlns:xlink="http://www.w3.org/1999/xlink" x="0px" y="0px"
	 viewBox="0 0 511.999 511.999" style="enable-background:new 0 0 511.999 511.999;" xml:space="preserve">
<path style="fill:#FFBC89;" d="M328.271,16.345c-8.883,8.312-14.696,18.604-17.466,29.508c-10.285,2.612-20.024,7.932-28.072,15.98
	s-13.367,17.787-15.98,28.072c-10.285,2.612-20.024,7.932-28.072,15.98s-13.367,17.787-15.98,28.072
	c-10.285,2.612-20.024,7.932-28.072,15.98c-8.048,8.048-13.367,17.787-15.98,28.072c-10.285,2.612-20.024,7.932-28.072,15.98
	c-8.048,8.048-13.367,17.787-15.98,28.072c-10.285,2.612-20.024,7.932-28.072,15.98c-8.048,8.048-13.367,17.787-15.98,28.072
	c-10.285,2.612-20.024,7.932-28.072,15.98s-13.367,17.787-15.98,28.072c-10.905,2.77-21.196,8.583-29.508,17.466
	c-21.726,23.215-21.805,59.858-0.167,83.155c23.669,25.485,63.535,26.04,87.909,1.665
	c103.081-103.081,206.174-206.152,309.255-309.234c22.04-25.438,23.037-63.265-2.559-87.036
	C388.129-5.459,351.486-5.381,328.271,16.345z"/>
<path style="opacity:0.1;fill:#674547;enable-background:new    ;" d="M29.918,386.552c-6.991,6.991-11.164,15.731-12.531,24.812
	c23.735,24.898,63.157,25.269,87.341,1.085C207.81,309.367,310.902,206.296,413.984,103.215
	c21.783-25.141,22.993-62.377-1.695-86.192c-9.314,1.26-18.305,5.462-25.464,12.622L29.918,386.552z"/>
<path style="fill:#B36945;" d="M465.103,108.451L108.196,465.358c-17.378,17.378-45.553,17.378-62.93,0l0,0
	c-17.378-17.378-17.378-45.553,0-62.93L402.172,45.519c17.378-17.378,45.553-17.378,62.93,0l0,0
	C482.481,62.897,482.481,91.073,465.103,108.451z"/>
<path style="opacity:0.1;fill:#674547;enable-background:new    ;" d="M108.196,465.358l356.907-356.907
	c6.786-6.786,10.909-15.219,12.395-24.012c-23.35-19.147-58.039-18.267-80.341,2.605c-8.883,8.312-14.696,18.604-17.466,29.508
	c-10.285,2.612-20.024,7.932-28.072,15.98c-8.048,8.048-13.367,17.787-15.98,28.072c-10.285,2.612-20.024,7.932-28.072,15.98
	c-8.048,8.048-13.367,17.787-15.98,28.072c-10.285,2.612-20.024,7.932-28.072,15.98c-8.048,8.048-13.367,17.787-15.98,28.072
	c-10.285,2.612-20.024,7.933-28.072,15.98c-8.048,8.048-13.367,17.787-15.98,28.072c-10.285,2.612-20.024,7.932-28.072,15.98
	s-13.367,17.787-15.98,28.072c-10.285,2.612-20.024,7.932-28.072,15.98s-13.367,17.787-15.98,28.072
	c-10.905,2.77-21.196,8.583-29.508,17.466c-20.669,22.085-21.73,56.315-3.156,79.653C92.037,476.722,101.034,472.52,108.196,465.358
	z"/>
<path style="fill:#FFBC89;" d="M409.052,98.023c-8.883,8.312-14.696,18.604-17.466,29.508c-10.285,2.612-20.024,7.932-28.072,15.98
	c-8.048,8.048-13.367,17.787-15.98,28.072c-10.285,2.612-20.024,7.932-28.072,15.98s-13.367,17.787-15.98,28.072
	c-10.285,2.612-20.024,7.932-28.072,15.98c-8.048,8.048-13.367,17.787-15.98,28.072c-10.285,2.612-20.024,7.932-28.072,15.98
	c-8.048,8.048-13.367,17.787-15.98,28.072c-10.285,2.612-20.024,7.932-28.072,15.98c-8.048,8.048-13.367,17.787-15.98,28.072
	c-10.285,2.612-20.024,7.932-28.072,15.98s-13.367,17.787-15.98,28.072c-10.905,2.77-21.196,8.583-29.508,17.466
	c-21.726,23.215-21.805,59.858-0.167,83.155c23.669,25.485,63.535,26.04,87.909,1.665
	c103.081-103.081,206.174-206.152,309.255-309.234c22.04-25.437,23.037-63.265-2.559-87.036
	C468.909,76.218,432.265,76.298,409.052,98.023z"/>
<g style="opacity:0.58;">
	<path style="fill:#DF613D;" d="M173.755,452.189c-0.278,0-0.558-0.014-0.84-0.042l-9.383-0.938
		c-4.582-0.458-7.925-4.545-7.467-9.127c0.458-4.582,4.534-7.924,9.127-7.467l9.385,0.938c4.582,0.459,7.925,4.546,7.466,9.128
		C181.611,448.981,177.987,452.189,173.755,452.189z"/>
	<path style="fill:#DF613D;" d="M224.018,400.1c-4.244,0-7.873-3.225-8.29-7.537l-0.908-9.385c-0.444-4.584,2.913-8.659,7.496-9.103
		c4.581-0.439,8.659,2.913,9.103,7.496l0.908,9.389c0.443,4.583-2.914,8.658-7.497,9.101
		C224.558,400.087,224.286,400.1,224.018,400.1z"/>
	<path style="fill:#DF613D;" d="M392.402,233.541c-0.277,0-0.557-0.014-0.839-0.042l-9.384-0.938
		c-4.582-0.458-7.925-4.545-7.467-9.127c0.458-4.582,4.537-7.926,9.127-7.467l9.384,0.938c4.582,0.458,7.925,4.545,7.467,9.127
		C400.26,230.331,396.635,233.541,392.402,233.541z"/>
	<path style="fill:#DF613D;" d="M442.666,181.452c-4.243,0-7.873-3.224-8.29-7.535l-0.908-9.386
		c-0.444-4.584,2.912-8.659,7.496-9.103c4.58-0.436,8.659,2.912,9.103,7.496l0.908,9.386c0.444,4.584-2.912,8.659-7.496,9.103
		C443.206,181.439,442.935,181.452,442.666,181.452z"/>
	<path style="fill:#DF613D;" d="M331.465,292.653c-4.244,0-7.873-3.225-8.29-7.537l-0.908-9.385
		c-0.444-4.584,2.913-8.659,7.496-9.103c4.584-0.442,8.659,2.913,9.103,7.496l0.908,9.389c0.443,4.583-2.914,8.658-7.497,9.101
		C332.004,292.64,331.734,292.653,331.465,292.653z"/>
	<path style="fill:#DF613D;" d="M280.723,344.349c-0.356,0-0.716-0.022-1.078-0.07l-9.869-1.273
		c-4.567-0.589-7.791-4.769-7.203-9.336c0.589-4.567,4.769-7.797,9.336-7.203l9.872,1.274c4.567,0.589,7.79,4.77,7.201,9.337
		C288.439,341.283,284.853,344.349,280.723,344.349z"/>
</g>
<path style="fill:#FE6853;" d="M38.425,378.002c-2.053,0-4.107-0.783-5.673-2.35c-3.133-3.133-3.133-8.214,0-11.346
	c12.216-12.216,23.152-13.876,32.8-15.34c8.588-1.303,15.372-2.332,23.861-10.821c8.488-8.488,9.517-15.27,10.819-23.859
	c1.463-9.647,3.122-20.582,15.338-32.798c12.216-12.217,23.153-13.876,32.8-15.341c8.588-1.303,15.372-2.332,23.861-10.821
	c8.489-8.49,9.518-15.274,10.822-23.862c1.465-9.649,3.124-20.584,15.341-32.8c12.217-12.217,23.153-13.878,32.801-15.342
	c8.588-1.303,15.373-2.333,23.863-10.823s9.519-15.274,10.822-23.862c1.465-9.649,3.124-20.584,15.341-32.801
	c12.218-12.218,23.154-13.879,32.803-15.343c8.589-1.304,15.374-2.334,23.865-10.826c8.491-8.491,9.521-15.276,10.825-23.865
	c1.465-9.649,3.125-20.585,15.343-32.803c3.133-3.133,8.214-3.133,11.346,0c3.133,3.133,3.133,8.214,0,11.346
	c-8.491,8.491-9.521,15.276-10.825,23.865c-1.466,9.649-3.126,20.585-15.344,32.803s-23.155,13.88-32.803,15.344
	c-8.589,1.304-15.374,2.334-23.865,10.825c-8.49,8.49-9.519,15.274-10.822,23.862c-1.465,9.649-3.124,20.584-15.341,32.801
	c-12.217,12.217-23.153,13.878-32.801,15.342c-8.588,1.303-15.373,2.333-23.863,10.823c-8.489,8.49-9.518,15.273-10.822,23.861
	c-1.465,9.649-3.124,20.584-15.341,32.801c-12.216,12.216-23.153,13.876-32.8,15.34c-8.588,1.303-15.372,2.332-23.861,10.822
	c-8.488,8.488-9.517,15.27-10.819,23.858c-1.464,9.647-3.122,20.583-15.338,32.798c-12.216,12.216-23.152,13.876-32.8,15.34
	c-8.588,1.303-15.372,2.332-23.861,10.821C42.532,377.218,40.479,378.002,38.425,378.002z"/>
<g>
</g>
<g>
</g>
<g>
</g>
<g>
</g>
<g>
</g>
<g>
</g>
<g>
</g>
<g>
</g>
<g>
</g>
<g>
</g>
<g>
</g>
<g>
</g>
<g>
</g>
<g>
</g>
<g>
</g>
</svg>
